#!OML:ASF I:\golf\golf\golf 2\Subject 1\2002-09-07\Subject1.ASF
:FULLY-SPECIFIED
:DEGREES
405
root -10.162 18.0879 5.0681 -153.315 74.9796 -169.253
lowerback 3.02933 1.81535 0.790262
upperback 5.17644 2.53969 4.22629
thorax 3.48362 1.3036 3.93272
lowerneck -11.899 6.19758 7.04218
upperneck 35.5787 12.0266 -7.10144
head 15.3474 5.70285 -2.04641
rclavicle -1.47101e-014 -4.21423e-014
rhumerus -11.8287 24.4463 -100.409
rradius 37.6396
rwrist -44.136
rhand -30.6083 -11.4532
rfingers 7.12502
rthumb -3.90492 -41.3971
lclavicle -1.47101e-014 -4.21423e-014
lhumerus -8.6798 -38.4298 106.662
lradius 34.2545
lwrist 46.2401
lhand -3.53863 58.2552
lfingers 7.12502
lthumb 22.1969 87.0008
rfemur -24.224 -7.22334 15.6589
rtibia 23.0659
rfoot -7.23859 -14.9733
rtoes -0.485901
lfemur -30.0509 0.439046 -12.8329
ltibia 22.6868
lfoot -7.96443 -13.9447
ltoes -7.13827
406
root -10.1604 18.0871 5.06846 -153.413 74.9773 -169.357
lowerback 3.00452 1.86388 0.770216
upperback 5.18087 2.60275 4.18324
thorax 3.49923 1.33437 3.90001
lowerneck -11.9278 6.19287 7.12965
upperneck 35.5308 11.9979 -7.14245
head 15.3384 5.69558 -2.08241
rclavicle -1.07344e-014 1.59028e-015
rhumerus -11.7721 24.2732 -100.394
rradius 37.5883
rwrist -44.0421
rhand -30.5877 -11.4029
rfingers 7.12502
rthumb -3.88496 -41.3472
lclavicle -1.07344e-014 1.59028e-015
lhumerus -8.68213 -38.6203 106.66
lradius 34.2575
lwrist 46.3042
lhand -3.57734 58.3458
lfingers 7.12502
lthumb 22.1598 87.0957
rfemur -24.2349 -7.25067 15.6425
rtibia 23.0827
rfoot -7.20307 -14.9684
rtoes -1.00883
lfemur -30.0228 0.378371 -12.8469
ltibia 22.6504
lfoot -7.94991 -13.865
ltoes -6.98536
407
root -10.1579 18.0872 5.06884 -153.501 75.0249 -169.454
lowerback 2.96403 1.90432 0.653368
upperback 5.1815 2.65394 4.19997
thorax 3.51384 1.35502 3.98476
lowerneck -11.906 6.22376 7.1443
upperneck 35.4541 12.0546 -7.21378
head 15.3097 5.71332 -2.10479
rclavicle -5.24792e-014 -3.49861e-014
rhumerus -11.8061 24.2988 -100.328
rradius 37.6381
rwrist -44.102
rhand -30.7573 -11.3602
rfingers 7.12502
rthumb -4.04876 -41.3015
lclavicle -5.24792e-014 -3.49861e-014
lhumerus -8.6979 -38.6649 106.742
lradius 34.218
lwrist 46.3689
lhand -3.6514 58.2754
lfingers 7.12502
lthumb 22.0887 87.0338
rfemur -24.2398 -7.22039 15.5961
rtibia 23.0884
rfoot -7.20739 -14.9441
rtoes -1.45598
lfemur -29.9944 0.444832 -12.9096
ltibia 22.6127
lfoot -7.92674 -13.9078
ltoes -6.64294
408
root -10.1554 18.0896 5.0697 -153.366 75.0393 -169.301
lowerback 2.95421 1.90821 0.62541
upperback 5.1815 2.65886 4.23383
thorax 3.51645 1.35617 4.03626
lowerneck -11.8554 6.29567 7.12037
upperneck 35.3475 12.1647 -7.25193
head 15.2596 5.75251 -2.09813
rclavicle -2.14687e-014 -7.15625e-015
rhumerus -11.847 24.3874 -100.309
rradius 37.6968
rwrist -44.2782
rhand -30.9073 -11.3679
rfingers 7.12502
rthumb -4.19358 -41.3064
lclavicle -2.14687e-014 -7.15625e-015
lhumerus -8.7504 -38.6988 106.815
lradius 34.2341
lwrist 46.5866
lhand -4.13815 58.1662
lfingers 7.12502
lthumb 21.6213 86.9791
rfemur -24.215 -7.15638 15.6122
rtibia 23.0913
rfoot -7.27302 -14.9201
rtoes -0.904858
lfemur -29.9519 0.605195 -12.9167
ltibia 22.5715
lfoot -7.96012 -14.0693
ltoes -6.94347
409
root -10.1541 18.0912 5.07078 -153.207 75.0064 -169.125
lowerback 2.96047 1.90469 0.684275
upperback 5.1749 2.65498 4.22654
thorax 3.50911 1.3566 3.99503
lowerneck -11.7904 6.35894 7.15767
upperneck 35.2248 12.238 -7.28162
head 15.1986 5.78531 -2.10573
rclavicle -2.3059e-014 7.95139e-015
rhumerus -11.8767 24.4893 -100.333
rradius 37.7892
rwrist -44.5279
rhand -30.9785 -11.4494
rfingers 7.12502
rthumb -4.26234 -41.3865
lclavicle -2.3059e-014 7.95139e-015
lhumerus -8.78402 -38.7598 106.819
lradius 34.2688
lwrist 46.7683
lhand -4.53752 58.1944
lfingers 7.12502
lthumb 21.2377 87.0509
rfemur -24.1982 -7.14529 15.6671
rtibia 23.0922
rfoot -7.29494 -14.9355
rtoes -0.300563
lfemur -29.9264 0.623229 -12.8542
ltibia 22.5424
lfoot -7.95469 -14.1393
ltoes -7.07106
410
root -10.1526 18.0907 5.07155 -153.311 75 -169.23
lowerback 2.94477 1.90611 0.603906
upperback 5.1735 2.65558 4.24205
thorax 3.51236 1.35362 4.05706
lowerneck -11.7465 6.39793 7.16006
upperneck 35.1468 12.3034 -7.33371
head 15.1628 5.80817 -2.1173
rclavicle 2.66371e-014 1.59028e-014
rhumerus -11.9424 24.6388 -100.272
rradius 37.8887
rwrist -44.6264
rhand -31.1764 -11.5944
rfingers 7.12502
rthumb -4.45347 -41.5275
lclavicle 2.66371e-014 1.59028e-014
lhumerus -8.76202 -38.736 106.835
lradius 34.2477
lwrist 46.7753
lhand -4.45301 58.2088
lfingers 7.12502
lthumb 21.3189 87.0562
rfemur -24.1788 -7.16035 15.6377
rtibia 23.0843
rfoot -7.34705 -14.9193
rtoes 0.025793
lfemur -29.9072 0.630733 -12.8831
ltibia 22.5251
lfoot -7.94437 -14.1761
ltoes -7.03225
411
root -10.1507 18.0903 5.07152 -153.421 74.997 -169.332
lowerback 2.94212 1.93473 0.544653
upperback 5.17595 2.69311 4.24229
thorax 3.51138 1.37013 4.09071
lowerneck -11.7954 6.40301 7.18758
upperneck 35.1518 12.3196 -7.37768
head 15.1848 5.81168 -2.1352
rclavicle -2.74323e-014 1.59028e-014
rhumerus -11.9575 24.5809 -100.199
rradius 37.8732
rwrist -44.5141
rhand -31.205 -11.6126
rfingers 7.12502
rthumb -4.48107 -41.5452
lclavicle -2.74323e-014 1.59028e-014
lhumerus -8.75299 -38.7396 106.89
lradius 34.1898
lwrist 46.6696
lhand -4.23689 58.1471
lfingers 7.12502
lthumb 21.5265 86.9708
rfemur -24.1462 -7.15554 15.605
rtibia 23.0744
rfoot -7.39515 -14.9174
rtoes -0.133669
lfemur -29.8783 0.688612 -12.9356
ltibia 22.5017
lfoot -7.9837 -14.2167
ltoes -7.3002
412
root -10.149 18.0914 5.07161 -153.488 74.9934 -169.379
lowerback 2.98088 1.9668 0.535547
upperback 5.16691 2.73689 4.21804
thorax 3.47785 1.39218 4.06816
lowerneck -11.8312 6.40285 7.23583
upperneck 35.1167 12.3148 -7.42698
head 15.1842 5.80835 -2.16314
rclavicle -1.74931e-014 7.15625e-015
rhumerus -11.9426 24.4827 -100.181
rradius 37.8152
rwrist -44.462
rhand -31.097 -11.5665
rfingers 7.12502
rthumb -4.37684 -41.5013
lclavicle -1.74931e-014 7.15625e-015
lhumerus -8.78206 -38.7389 106.941
lradius 34.174
lwrist 46.5291
lhand -4.04835 58.1925
lfingers 7.12502
lthumb 21.7075 86.9954
rfemur -24.1175 -7.15474 15.6043
rtibia 23.0714
rfoot -7.32458 -14.9672
rtoes -0.791279
lfemur -29.8397 0.695388 -12.9452
ltibia 22.4713
lfoot -7.92473 -14.2303
ltoes -7.05821
413
root -10.1478 18.0927 5.07213 -153.636 74.9854 -169.519
lowerback 3.00322 1.99007 0.484321
upperback 5.1574 2.76798 4.20799
thorax 3.45144 1.40608 4.08489
lowerneck -11.8691 6.4077 7.15638
upperneck 35.0832 12.3002 -7.34855
head 15.1615 5.79925 -2.11806
rclavicle -4.41302e-014 -4.13472e-014
rhumerus -11.921 24.517 -100.144
rradius 37.7733
rwrist -44.4643
rhand -31.0948 -11.6139
rfingers 7.12502
rthumb -4.37473 -41.5487
lclavicle -4.41302e-014 -4.13472e-014
lhumerus -8.80965 -38.7747 106.973
lradius 34.2207
lwrist 46.4891
lhand -3.97887 58.3104
lfingers 7.12502
lthumb 21.7742 87.1056
rfemur -24.0919 -7.18616 15.5813
rtibia 23.0665
rfoot -7.29172 -14.9795
rtoes -0.708592
lfemur -29.8047 0.602525 -12.9496
ltibia 22.4429
lfoot -7.88382 -14.1585
ltoes -6.97381
414
root -10.1467 18.0924 5.07191 -153.782 74.937 -169.633
lowerback 3.03942 2.02023 0.53778
upperback 5.16212 2.80967 4.15052
thorax 3.43819 1.42962 3.99311
lowerneck -11.9584 6.40485 7.11061
upperneck 35.0867 12.2435 -7.20793
head 15.1609 5.78169 -2.0588
rclavicle -2.50469e-014 -3.57812e-014
rhumerus -11.8477 24.4131 -100.151
rradius 37.6819
rwrist -44.3857
rhand -31.0717 -11.6469
rfingers 7.12502
rthumb -4.35241 -41.5821
lclavicle -2.50469e-014 -3.57812e-014
lhumerus -8.82563 -38.9653 106.936
lradius 34.2274
lwrist 46.4823
lhand -3.86763 58.232
lfingers 7.12502
lthumb 21.8811 87.0148
rfemur -24.0186 -7.17811 15.543
rtibia 23.0561
rfoot -7.47875 -14.9906
rtoes 0.531242
lfemur -29.7568 0.529351 -12.9583
ltibia 22.4201
lfoot -7.95557 -14.1208
ltoes -7.37352
